<svg width="32" height="32" viewBox="0 0 32 32" fill="none" xmlns="http://www.w3.org/2000/svg">
<path d="M21 19C25.4183 19 29 15.4183 29 11C29 6.58172 25.4183 3 21 3C16.5817 3 13 6.58172 13 11C13 15.4183 16.5817 19 21 19Z" stroke="#99F8FF" stroke-width="1.5" stroke-linecap="round" stroke-linejoin="round"/>
<path d="M26.6624 16.6624L15.3374 5.3374" stroke="#99F8FF" stroke-width="1.5" stroke-linecap="round" stroke-linejoin="round"/>
<path d="M12.5 19.5L11 21" stroke="#99F8FF" stroke-width="1.5" stroke-linecap="round" stroke-linejoin="round"/>
<path d="M13.0999 12.2375L3.51241 25.3125C3.3683 25.5044 3.29896 25.7422 3.31736 25.9814C3.33577 26.2206 3.44065 26.445 3.61241 26.6125L5.38741 28.3876C5.55496 28.5593 5.77932 28.6642 6.01856 28.6826C6.25781 28.701 6.49557 28.6317 6.68741 28.4875L19.7624 18.9" stroke="#99F8FF" stroke-width="1.5" stroke-linecap="round" stroke-linejoin="round"/>
</svg>
